name C:\Users\u0101727\Documents\MyRepositories\upper-imu-dc\Results\main_tracking\Case_10\FLX01_angularVelocities_bodyFrame.mot
datacolumns 4
datarows 129
range 0.51000000 1.79000000
endheader 
time	radius_imu_x	radius_imu_y	radius_imu_z	
          0.51000000	         -0.15452310	          1.58351049	          0.10879492	
          0.52000000	         -0.23888396	          1.60957966	          0.07512031	
          0.53000000	         -0.29769931	          1.58558477	          0.06515305	
          0.54000000	         -0.33654173	          1.46485657	          0.07626132	
          0.55000000	         -0.35767071	          1.28898591	          0.10109358	
          0.56000000	         -0.35883338	          1.25018506	          0.12060818	
          0.57000000	         -0.35107011	          1.21957231	          0.14183020	
          0.58000000	         -0.35040142	          0.99644216	          0.17909938	
          0.59000000	         -0.35928250	          0.68650288	          0.22142931	
          0.60000000	         -0.37309609	          0.37509637	          0.26186131	
          0.61000000	         -0.38809188	          0.06862885	          0.29877942	
          0.62000000	         -0.40223992	         -0.24329605	          0.33237434	
          0.63000000	         -0.41542889	         -0.56813658	          0.36338170	
          0.64000000	         -0.42891960	         -0.89746225	          0.39207006	
          0.65000000	         -0.44468638	         -1.20648913	          0.41775475	
          0.66000000	         -0.46470457	         -1.46199620	          0.43877506	
          0.67000000	         -0.49033043	         -1.63410215	          0.45282878	
          0.68000000	         -0.52193501	         -1.70629916	          0.45749833	
          0.69000000	         -0.55888886	         -1.67984733	          0.45078010	
          0.70000000	         -0.59984602	         -1.57177362	          0.43145334	
          0.71000000	         -0.64316309	         -1.40859010	          0.39920034	
          0.72000000	         -0.68728545	         -1.21897363	          0.35449304	
          0.73000000	         -0.73100550	         -1.02798990	          0.29834273	
          0.74000000	         -0.77356852	         -0.85403196	          0.23202791	
          0.75000000	         -0.81464211	         -0.70835993	          0.15687242	
          0.76000000	         -0.85419126	         -0.59633454	          0.07408913	
          0.77000000	         -0.89231395	         -0.51930221	         -0.01532356	
          0.78000000	         -0.92908340	         -0.47648937	         -0.11064065	
          0.79000000	         -0.96442369	         -0.46666188	         -0.21143089	
          0.80000000	         -0.99803004	         -0.48932800	         -0.31756033	
          0.81000000	         -1.02934919	         -0.54516860	         -0.42918712	
          0.82000000	         -1.05765316	         -0.63552300	         -0.54670797	
          0.83000000	         -1.08223243	         -0.76104838	         -0.67061410	
          0.84000000	         -1.10267053	         -0.91999587	         -0.80127868	
          0.85000000	         -1.11907512	         -1.10697311	         -0.93874244	
          0.86000000	         -1.13211097	         -1.31325407	         -1.08254516	
          0.87000000	         -1.14276317	         -1.52913093	         -1.23161638	
          0.88000000	         -1.15191989	         -1.74762979	         -1.38423226	
          0.89000000	         -1.15998996	         -1.96797105	         -1.53805430	
          0.90000000	         -1.16676711	         -2.19714281	         -1.69025412	
          0.91000000	         -1.17163129	         -2.44881957	         -1.83769576	
          0.92000000	         -1.17402247	         -2.73993988	         -1.97713844	
          0.93000000	         -1.17401307	         -3.08589968	         -2.10546032	
          0.94000000	         -1.17278253	         -3.49536784	         -2.21993007	
          0.95000000	         -1.17285128	         -3.96551195	         -2.31851786	
          0.96000000	         -1.17799794	         -4.47833726	         -2.40019095	
          0.97000000	         -1.19282137	         -4.99905951	         -2.46514555	
          0.98000000	         -1.22191587	         -5.47777040	         -2.51495866	
          0.99000000	         -1.26884037	         -5.85570636	         -2.55264429	
          1.00000000	         -1.33426924	         -6.07548780	         -2.58255170	
          1.01000000	         -1.41680354	         -6.09659695	         -2.61011691	
          1.02000000	         -1.51355190	         -5.90693995	         -2.64119718	
          1.03000000	         -1.61802460	         -5.52304332	         -2.68121708	
          1.04000000	         -1.72128803	         -4.98691515	         -2.73436905	
          1.05000000	         -1.81458850	         -4.35947249	         -2.80298660	
          1.06000000	         -1.89044944	         -3.71134814	         -2.88727142	
          1.07000000	         -1.94344632	         -3.11312416	         -2.98519495	
          1.08000000	         -1.97106352	         -2.62548004	         -3.09269062	
          1.09000000	         -1.97416388	         -2.28931875	         -3.20431203	
          1.10000000	         -1.95705022	         -2.11821025	         -3.31421035	
          1.11000000	         -1.92693276	         -2.09538807	         -3.41706699	
          1.12000000	         -1.89268326	         -2.17837844	         -3.50859201	
          1.13000000	         -1.85921247	         -2.30702522	         -3.58562782	
          1.14000000	         -1.82835325	         -2.42080999	         -3.64598891	
          1.15000000	         -1.80316927	         -2.47672334	         -3.68850456	
          1.16000000	         -1.78480887	         -2.45450247	         -3.71270666	
          1.17000000	         -1.77134104	         -2.35783879	         -3.71812013	
          1.18000000	         -1.75935044	         -2.21126643	         -3.70375633	
          1.19000000	         -1.74538508	         -2.05149488	         -3.66800808	
          1.20000000	         -1.72719048	         -1.91543526	         -3.60891716	
          1.21000000	         -1.70429235	         -1.82787002	         -3.52474267	
          1.22000000	         -1.67772032	         -1.79262164	         -3.41461786	
          1.23000000	         -1.64885907	         -1.79173785	         -3.27890273	
          1.24000000	         -1.61798477	         -1.79336255	         -3.11886961	
          1.25000000	         -1.58414547	         -1.77536973	         -2.93471561	
          1.26000000	         -1.54302005	         -1.72410902	         -2.72466072	
          1.27000000	         -1.45781352	         -1.58832688	         -2.53285912	
          1.28000000	         -1.45036768	         -1.40543165	         -2.28813923	
          1.29000000	         -1.49941324	         -1.18809577	         -2.05247221	
          1.30000000	         -1.52388807	         -0.92497434	         -1.82259250	
          1.31000000	         -1.45420737	         -0.63859567	         -1.62103996	
          1.32000000	         -1.37161703	         -0.37070574	         -1.40505516	
          1.33000000	         -1.29102526	         -0.01861059	         -1.20599084	
          1.34000000	         -1.27339754	          0.30939033	         -1.04032760	
          1.35000000	         -1.32960594	          0.67511818	         -0.90613106	
          1.36000000	         -1.37752715	          1.03788238	         -0.80402226	
          1.37000000	         -1.38320754	          1.33894083	         -0.71668166	
          1.38000000	         -1.33216454	          1.56003349	         -0.63451869	
          1.39000000	         -1.32547042	          1.66301720	         -0.53886606	
          1.40000000	         -1.31478761	          1.68584615	         -0.44548188	
          1.41000000	         -1.28952253	          1.63173937	         -0.35116377	
          1.42000000	         -1.26481923	          1.55771474	         -0.25580085	
          1.43000000	         -1.25932646	          1.51839738	         -0.16716548	
          1.44000000	         -1.26443122	          1.53987200	         -0.08903095	
          1.45000000	         -1.26935642	          1.61405544	         -0.02249759	
          1.46000000	         -1.27657535	          1.70574413	          0.03058065	
          1.47000000	         -1.28527092	          1.77762447	          0.06971561	
          1.48000000	         -1.29319648	          1.80287014	          0.09549594	
          1.49000000	         -1.29815418	          1.76964190	          0.10910141	
          1.50000000	         -1.29860007	          1.67916957	          0.11205034	
          1.51000000	         -1.29385401	          1.54178780	          0.10602967	
          1.52000000	         -1.28402553	          1.37252966	          0.09278421	
          1.53000000	         -1.26968655	          1.18584666	          0.07410175	
          1.54000000	         -1.25156819	          0.99189775	          0.05181299	
          1.55000000	         -1.23059404	          0.79771058	          0.02766050	
          1.56000000	         -1.20810427	          0.61139818	          0.00306723	
          1.57000000	         -1.18583313	          0.44409876	         -0.02100257	
          1.58000000	         -1.16550420	          0.30746658	         -0.04398354	
          1.59000000	         -1.14835868	          0.20972483	         -0.06554535	
          1.60000000	         -1.13494307	          0.15379270	         -0.08547050	
          1.61000000	         -1.12509081	          0.13679855	         -0.10357344	
          1.62000000	         -1.11788901	          0.14878945	         -0.11958189	
          1.63000000	         -1.11174585	          0.17235632	         -0.13303778	
          1.64000000	         -1.10484348	          0.18685028	         -0.14338353	
          1.65000000	         -1.09594473	          0.17705126	         -0.15028084	
          1.66000000	         -1.08513436	          0.14154054	         -0.15400588	
          1.67000000	         -1.07398553	          0.09486887	         -0.15565927	
          1.68000000	         -1.06491281	          0.06065670	         -0.15699595	
          1.69000000	         -1.05999990	          0.05887933	         -0.15991072	
          1.70000000	         -1.06001932	          0.09561738	         -0.16587101	
          1.71000000	         -1.06426290	          0.16233449	         -0.17563920	
          1.72000000	         -1.07118297	          0.24428956	         -0.18939914	
          1.73000000	         -1.07931744	          0.33140923	         -0.20712497	
          1.74000000	         -1.08793927	          0.42482701	         -0.22893646	
          1.75000000	         -1.09708932	          0.53529986	         -0.25522475	
          1.76000000	         -1.10698323	          0.67399515	         -0.28645571	
          1.77000000	         -1.11724678	          0.84177705	         -0.32278779	
          1.78000000	         -1.12660500	          1.02488032	         -0.36379769	
          1.79000000	         -1.13323021	          1.19936040	         -0.40849351	
